<svg width="16" height="20" viewBox="0 0 16 20" fill="none" xmlns="http://www.w3.org/2000/svg">
<path d="M13.2803 6.71967C13.5732 7.01256 13.5732 7.48744 13.2803 7.78033L11.2803 9.7803C10.9874 10.0732 10.5126 10.0732 10.2197 9.7803L9.2197 8.7803C8.9268 8.4874 8.9268 8.0126 9.2197 7.71967C9.5126 7.42678 9.9874 7.42678 10.2803 7.71967L10.75 8.1893L12.2197 6.71967C12.5126 6.42678 12.9874 6.42678 13.2803 6.71967ZM13.2803 13.2803C13.5732 12.9874 13.5732 12.5126 13.2803 12.2197C12.9874 11.9268 12.5126 11.9268 12.2197 12.2197L10.75 13.6893L10.2803 13.2197C9.9874 12.9268 9.5126 12.9268 9.2197 13.2197C8.9268 13.5126 8.9268 13.9874 9.2197 14.2803L10.2197 15.2803C10.5126 15.5732 10.9874 15.5732 11.2803 15.2803L13.2803 13.2803ZM3 8.25C3 7.83579 3.33579 7.5 3.75 7.5H7.2501C7.6643 7.5 8.0001 7.83579 8.0001 8.25C8.0001 8.6642 7.6643 9 7.2501 9H3.75C3.33579 9 3 8.6642 3 8.25ZM3.75006 13C3.33585 13 3.00006 13.3358 3.00006 13.75C3.00006 14.1642 3.33585 14.5 3.75006 14.5H7.25C7.6642 14.5 8 14.1642 8 13.75C8 13.3358 7.6642 13 7.25 13H3.75006ZM11.9863 2.00068C11.8623 0.87537 10.9084 0 9.75 0H6.25C5.09205 0 4.13841 0.87472 4.01379 1.99944L2.25 2C1.00736 2 0 3.00736 0 4.25V17.75C0 18.9926 1.00736 20 2.25 20H13.75C14.9926 20 16 18.9926 16 17.75V4.25C16 3.00736 14.9926 2 13.75 2L11.9862 1.99944L11.9863 2.00068ZM6.25 4.5H9.75C10.53 4.5 11.2174 4.10307 11.621 3.50016L13.75 3.5C14.1642 3.5 14.5 3.83579 14.5 4.25V17.75C14.5 18.1642 14.1642 18.5 13.75 18.5H2.25C1.83579 18.5 1.5 18.1642 1.5 17.75V4.25C1.5 3.83579 1.83579 3.5 2.25 3.5L4.37902 3.5002C4.78267 4.1031 5.46997 4.5 6.25 4.5ZM6.25 1.5H9.75C10.1642 1.5 10.5 1.83579 10.5 2.25C10.5 2.66421 10.1642 3 9.75 3H6.25C5.83579 3 5.5 2.66421 5.5 2.25C5.5 1.83579 5.83579 1.5 6.25 1.5Z" fill="#777777"/>
</svg>
