<svg width="12" height="12" viewBox="0 0 12 12" fill="none" xmlns="http://www.w3.org/2000/svg">
<path d="M9.83333 0C11.0299 0 12 0.970047 12 2.16667V9.83333C12 11.0299 11.0299 12 9.83333 12H2.16667C0.970047 12 0 11.0299 0 9.83333V2.16667C0 0.970047 0.970047 0 2.16667 0H9.83333ZM11 3.66667H1V9.83333C1 10.4777 1.52233 11 2.16667 11H9.83333C10.4777 11 11 10.4777 11 9.83333V3.66667ZM3.16667 7.66667C3.62691 7.66667 4 8.03973 4 8.5C4 8.96027 3.62691 9.33333 3.16667 9.33333C2.70643 9.33333 2.33333 8.96027 2.33333 8.5C2.33333 8.03973 2.70643 7.66667 3.16667 7.66667ZM6 7.66667C6.46027 7.66667 6.83333 8.03973 6.83333 8.5C6.83333 8.96027 6.46027 9.33333 6 9.33333C5.53973 9.33333 5.16667 8.96027 5.16667 8.5C5.16667 8.03973 5.53973 7.66667 6 7.66667ZM3.16667 5C3.62691 5 4 5.37307 4 5.83333C4 6.2936 3.62691 6.66667 3.16667 6.66667C2.70643 6.66667 2.33333 6.2936 2.33333 5.83333C2.33333 5.37307 2.70643 5 3.16667 5ZM6 5C6.46027 5 6.83333 5.37307 6.83333 5.83333C6.83333 6.2936 6.46027 6.66667 6 6.66667C5.53973 6.66667 5.16667 6.2936 5.16667 5.83333C5.16667 5.37307 5.53973 5 6 5ZM8.83333 5C9.2936 5 9.66667 5.37307 9.66667 5.83333C9.66667 6.2936 9.2936 6.66667 8.83333 6.66667C8.37307 6.66667 8 6.2936 8 5.83333C8 5.37307 8.37307 5 8.83333 5ZM9.83333 1H2.16667C1.52233 1 1 1.52233 1 2.16667V2.66667H11V2.16667C11 1.52233 10.4777 1 9.83333 1Z" fill="#2B78CA"/>
</svg>
